{"glyphs":{"0":{"ha":1417,"x_min":49,"x_max":1367,"o":"m 1367 538 q 1364 640 1367 578 q 1357 771 1361 701 q 1333 889 1354 831 q 1276 982 1313 947 q 1198 1039 1238 1019 q 1101 1068 1158 1058 q 956 1081 1043 1078 q 708 1083 869 1083 q 460 1081 547 1083 q 315 1068 374 1078 q 217 1039 257 1058 q 139 982 178 1019 q 83 889 104 947 q 58 771 61 831 q 51 640 54 701 q 49 538 49 578 q 51 434 49 496 q 58 304 54 372 q 83 185 63 244 q 139 93 104 126 q 217 36 178 56 q 315 7 257 17 q 457 -6 372 -3 q 708 -8 542 -8 q 959 -6 874 -8 q 1101 7 1044 -3 q 1198 36 1158 17 q 1276 93 1238 56 q 1333 185 1313 126 q 1357 304 1354 244 q 1364 434 1361 372 q 1367 538 1367 496 m 1053 664 q 1057 594 1056 622 q 1058 539 1058 565 q 1057 485 1058 514 q 1053 415 1056 457 q 1040 353 1051 385 q 1010 303 1029 321 q 968 272 989 283 q 917 256 947 261 q 841 250 886 251 q 707 249 796 249 q 572 250 618 249 q 497 256 526 251 q 445 272 467 261 q 403 303 424 283 q 374 352 385 321 q 361 415 363 383 q 357 481 358 447 q 356 539 356 514 q 357 599 356 565 q 361 664 358 632 q 374 727 363 696 q 403 776 385 758 q 444 807 424 796 q 497 823 465 818 q 573 829 528 828 q 707 831 618 831 q 842 829 796 831 q 917 823 888 828 q 969 807 947 818 q 1010 776 990 796 q 1040 726 1029 758 q 1053 664 1051 694 z "},"1":{"ha":454,"x_min":56,"x_max":396,"o":"m 57 0 l 344 0 l 57 0 m 56 1092 l 56 0 l 396 0 l 396 1092 l 56 1092 z "},"2":{"ha":1383,"x_min":46,"x_max":1321,"o":"m 1289 544 q 1318 751 1318 610 q 1306 900 1318 842 q 1257 1000 1294 958 q 1145 1064 1219 1042 q 949 1086 1071 1086 q 88 1086 744 1086 l 88 839 q 847 839 818 839 q 933 833 903 838 q 981 819 964 829 q 1003 787 997 808 q 1010 726 1010 765 q 963 642 1010 661 q 796 618 915 624 q 713 613 776 617 q 590 606 650 610 q 436 595 531 601 q 296 585 342 589 q 150 543 207 579 q 90 483 118 521 l 90 483 q 66 436 74 454 q 54 398 58 418 q 49 348 50 378 q 47 256 47 318 l 46 0 q 1321 0 251 0 l 1321 246 q 349 246 381 246 q 382 340 349 319 q 422 353 399 350 q 497 361 444 357 q 574 367 547 364 q 700 376 624 371 q 907 392 833 386 q 1038 404 981 399 q 1176 430 1121 410 q 1261 494 1231 450 l 1276 519 q 1283 532 1279 522 q 1289 544 1288 542 z "},"3":{"ha":1350,"x_min":58,"x_max":1290,"o":"m 58 251 l 58 0 l 653 0 q 906 3 818 0 q 1053 13 993 6 q 1152 37 1113 21 q 1225 83 1192 53 q 1258 120 1246 103 q 1276 163 1269 138 q 1287 226 1283 188 q 1290 326 1290 265 q 1285 406 1290 372 q 1260 466 1279 439 q 1203 513 1242 493 q 1103 544 1165 533 q 1076 551 1076 549 q 1079 553 1076 553 l 1093 557 q 1194 590 1157 571 q 1247 633 1231 608 q 1267 684 1263 657 q 1271 758 1271 711 l 1271 778 q 1268 875 1271 839 q 1258 932 1265 911 q 1240 967 1251 953 q 1206 1001 1228 982 q 1136 1049 1172 1032 q 1043 1073 1100 1065 q 904 1083 986 1081 q 653 1085 822 1085 q 357 1086 594 1085 q 154 1086 201 1086 q 58 1085 96 1086 q 58 840 58 1082 l 829 840 q 921 823 886 840 q 957 757 956 806 q 933 682 957 706 q 835 658 908 658 l 833 658 l 283 658 l 283 440 l 368 440 l 844 440 l 846 440 q 944 419 914 440 q 974 354 974 397 q 951 273 974 294 q 840 251 929 251 l 58 251 z "},"4":{"ha":1425,"x_min":57,"x_max":1367,"o":"m 1367 436 l 1196 436 l 1196 1075 l 826 1075 l 57 582 l 57 213 l 900 213 l 900 0 l 1196 0 l 1196 213 l 1367 213 l 1367 436 m 900 436 l 296 436 l 294 436 l 900 818 l 900 436 z "},"5":{"ha":1383,"x_min":54,"x_max":1319,"o":"m 922 733 l 357 733 l 357 829 q 1278 829 561 829 l 1278 1085 q 88 1085 117 1085 l 88 517 l 844 517 q 975 484 943 515 q 1007 381 1007 453 q 1002 321 1007 344 q 982 281 997 297 q 846 244 947 244 l 54 244 l 54 -1 l 831 -1 q 1068 17 967 -1 q 1221 81 1169 36 q 1275 158 1254 115 q 1305 243 1296 200 q 1317 324 1314 286 q 1319 406 1319 361 q 1303 549 1319 490 q 1245 649 1288 608 q 1124 712 1203 690 q 922 733 1044 733 z "},"6":{"ha":1375,"x_min":60,"x_max":1315,"o":"m 908 439 l 910 439 q 997 409 958 439 q 1036 336 1036 379 q 996 259 1036 286 q 904 232 956 232 l 490 232 q 399 259 439 232 q 358 336 358 286 q 399 409 360 379 q 485 439 438 439 l 486 439 l 908 439 m 371 682 q 381 769 371 739 q 412 814 390 800 q 467 831 433 828 q 568 835 501 835 l 1042 835 l 1282 833 l 1282 835 l 1282 1085 l 471 1085 q 293 1068 368 1085 q 166 1013 218 1051 q 87 908 114 974 q 60 743 60 842 l 60 313 q 78 188 60 250 q 136 97 97 126 q 221 42 182 61 q 315 12 260 22 q 456 -3 371 1 q 690 -7 542 -7 l 692 -7 q 933 -4 843 -7 q 1081 8 1024 -1 q 1175 34 1138 17 q 1246 82 1213 51 q 1299 178 1283 117 q 1314 344 1314 239 l 1315 344 q 1297 513 1315 444 q 1246 606 1278 581 q 1176 645 1214 631 q 1077 668 1138 660 q 924 679 1017 676 q 685 682 832 682 l 371 682 z "},"7":{"ha":1379,"x_min":43,"x_max":1336,"o":"m 1336 1082 q 43 1082 1132 1082 l 43 808 q 921 808 892 808 l 222 0 l 617 0 l 1336 831 l 1336 1082 z "},"8":{"ha":1400,"x_min":60,"x_max":1356,"o":"m 906 443 q 995 412 954 443 q 1038 336 1036 381 q 996 254 1038 283 q 901 225 954 225 l 900 225 l 500 225 l 499 225 q 405 254 446 225 q 364 336 364 283 q 405 412 364 381 q 494 443 446 443 l 906 443 m 508 644 q 420 674 460 644 q 379 744 381 703 q 420 822 379 796 q 513 849 461 849 l 901 849 q 994 822 953 849 q 1035 744 1035 796 q 994 674 1033 703 q 907 644 954 644 l 906 644 l 508 644 m 1165 557 q 1266 593 1226 569 q 1324 645 1306 617 q 1349 701 1343 674 q 1356 761 1356 729 l 1356 781 q 1351 871 1356 833 q 1338 931 1346 908 q 1319 967 1329 953 q 1289 1003 1308 982 l 1288 1006 q 1215 1053 1254 1036 q 1114 1079 1175 1071 q 964 1090 1053 1088 q 706 1092 875 1092 q 449 1090 538 1092 q 299 1079 360 1088 q 198 1053 238 1071 q 125 1006 158 1036 q 97 972 107 986 q 78 935 88 958 q 65 874 69 911 q 60 781 60 836 q 65 717 60 749 q 90 655 71 686 q 148 597 108 624 q 250 558 188 571 q 258 549 258 554 q 250 543 258 544 q 149 504 188 531 q 90 446 110 478 q 65 383 71 414 q 60 319 60 351 q 63 219 60 257 q 73 155 65 181 q 92 111 81 129 q 125 75 104 93 q 198 28 158 44 q 299 4 238 13 q 447 -6 361 -4 q 707 -8 533 -8 q 968 -6 881 -8 q 1115 3 1056 -4 q 1215 28 1175 11 q 1288 75 1256 44 q 1321 112 1308 94 q 1341 156 1333 129 q 1352 221 1349 182 q 1356 321 1356 260 q 1350 384 1356 353 q 1325 447 1344 415 q 1267 505 1306 479 q 1165 543 1228 531 q 1154 549 1154 546 q 1159 554 1154 551 q 1165 557 1164 557 z "},"9":{"ha":1363,"x_min":51,"x_max":1306,"o":"m 456 646 q 369 675 407 646 q 329 747 331 704 q 369 824 329 797 q 460 851 410 851 l 461 851 l 874 851 l 875 851 q 967 824 926 851 q 1007 747 1007 797 q 967 675 1006 704 q 879 646 928 646 l 456 646 m 996 403 q 986 317 996 347 q 955 272 976 286 q 899 255 933 258 q 797 251 865 251 l 322 251 l 83 251 l 83 0 l 894 0 q 1072 17 997 0 q 1199 72 1147 33 q 1278 177 1251 111 q 1306 342 1306 243 l 1306 771 q 1286 896 1306 833 q 1228 989 1267 958 q 1143 1044 1181 1025 q 1051 1073 1106 1063 q 910 1088 996 1083 q 674 1092 824 1092 q 432 1089 522 1092 q 285 1077 342 1086 q 190 1051 228 1068 q 119 1003 153 1033 q 67 906 82 967 q 51 740 51 846 q 70 572 51 640 q 119 479 89 504 q 190 440 151 454 q 288 417 228 425 q 438 406 347 408 q 681 403 529 403 l 996 403 z "},"\"":{"ha":697,"x_min":-1,"x_max":693,"o":"m -1 0 l 693 0 l 693 694 l -1 694 l -1 0 m 13 14 l 13 681 l 679 681 l 679 14 l 13 14 z "}," ":{"ha":694,"x_min":0,"x_max":0,"o":""},"!":{"ha":431,"x_min":54,"x_max":374,"o":"m 374 0 l 374 292 l 58 292 l 58 0 l 374 0 m 354 438 l 369 1068 l 54 1068 l 71 438 l 354 438 z "},"%":{"ha":1633,"x_min":44,"x_max":1606,"o":"m 1606 269 q 1604 322 1606 293 q 1600 385 1603 350 q 1588 442 1599 413 q 1561 488 1578 472 q 1522 517 1542 507 q 1474 531 1503 526 q 1401 538 1444 536 q 1281 539 1357 539 q 1160 538 1204 539 q 1087 531 1115 536 q 1039 517 1058 526 q 1000 488 1019 507 q 972 443 982 472 q 960 385 963 414 q 957 324 958 358 q 956 269 956 290 q 957 215 956 249 q 960 154 958 181 q 972 96 963 125 q 1000 50 982 67 q 1038 22 1018 32 q 1087 8 1058 13 q 1157 1 1115 3 q 1281 0 1199 0 q 1408 1 1367 0 q 1476 7 1449 3 q 1522 21 1503 11 q 1561 50 1540 31 q 1588 96 1578 67 q 1600 154 1599 125 q 1604 217 1603 189 q 1606 269 1606 246 m 1450 332 q 1453 271 1453 288 q 1450 208 1453 253 q 1429 154 1447 172 q 1385 131 1410 135 q 1281 126 1360 126 q 1175 131 1201 126 q 1131 154 1149 135 q 1110 208 1110 174 q 1107 271 1107 253 q 1110 332 1107 288 q 1131 388 1110 369 q 1176 410 1149 406 q 1281 414 1203 414 q 1384 410 1358 414 q 1429 388 1410 406 q 1450 332 1447 369 m 694 803 q 693 857 694 824 q 690 918 692 890 q 678 976 688 947 q 651 1021 668 1006 q 613 1049 632 1039 q 565 1063 593 1058 q 494 1069 536 1068 q 371 1071 453 1071 q 247 1069 289 1071 q 177 1063 206 1068 q 129 1049 149 1058 q 90 1021 110 1039 q 63 976 74 1006 q 51 918 53 946 q 49 883 51 918 q 44 803 44 822 q 49 721 44 782 q 51 686 51 686 q 63 628 53 658 q 90 582 74 599 q 129 554 110 564 q 177 540 149 544 q 247 535 206 536 q 371 533 289 533 q 494 535 453 533 q 565 540 536 536 q 613 554 593 544 q 651 582 632 564 q 678 628 668 599 q 690 686 688 657 q 694 803 694 749 m 542 864 q 544 804 544 822 q 542 742 544 786 q 535 710 540 726 q 521 686 529 694 q 476 664 501 668 q 371 660 450 660 q 266 664 292 660 q 219 686 240 668 q 206 710 211 694 q 199 742 200 726 q 196 804 196 786 q 199 864 196 822 q 206 897 200 881 q 219 921 211 913 q 267 943 240 939 q 371 947 293 947 q 474 943 449 947 q 521 921 500 939 q 535 897 529 913 q 542 864 540 881 m 1249 1079 l 1072 1079 l 431 0 l 606 0 l 1249 1079 z "},"&":{"ha":1593,"x_min":49,"x_max":1586,"o":"m 1335 308 q 1347 399 1347 356 q 1322 522 1347 457 l 1075 644 q 1083 602 1081 632 q 1086 533 1086 572 q 1086 494 1086 518 q 1085 471 1085 479 q 1067 446 1083 446 q 1040 454 1060 446 q 1031 458 1031 458 q 847 551 921 514 q 592 682 663 646 q 511 722 521 718 q 472 753 481 736 q 464 800 464 769 q 600 872 464 872 q 1344 872 697 872 l 1344 1079 l 729 1079 q 399 1070 503 1079 q 251 1022 294 1061 q 191 951 208 985 q 172 853 174 918 q 191 711 172 765 q 275 615 210 657 q 285 606 285 611 q 275 601 285 601 q 153 574 200 600 q 83 508 106 549 q 55 422 61 467 q 49 322 49 378 q 55 224 49 264 q 72 159 61 185 q 97 117 83 133 q 135 79 110 101 q 328 9 194 25 q 718 -7 463 -7 q 1072 17 950 -7 q 1260 103 1194 42 l 1478 -6 l 1586 181 l 1335 308 m 697 214 q 614 217 665 215 q 520 218 554 217 q 471 222 486 219 q 378 249 415 222 q 340 343 340 276 q 345 399 340 371 q 361 452 350 428 q 391 491 372 476 q 436 506 410 506 q 478 497 456 506 l 1013 226 q 901 217 981 221 q 822 213 856 214 q 754 213 789 213 q 719 214 744 213 q 697 214 706 214 z "},",":{"ha":431,"x_min":58,"x_max":374,"o":"m 199 -1 l 144 -194 l 243 -239 l 374 -10 l 374 290 l 58 290 l 58 -1 l 199 -1 z "},"-":{"ha":714,"x_min":60,"x_max":653,"o":"m 653 304 l 653 596 l 60 596 l 60 304 l 653 304 z "},".":{"ha":438,"x_min":60,"x_max":376,"o":"m 376 0 l 376 292 l 60 292 l 60 0 l 376 0 z "},"/":{"ha":750,"x_min":-79,"x_max":882,"o":"m 882 1160 l 690 1160 l -79 -139 l 113 -139 l 882 1160 z "},"<":{"ha":378,"x_min":0,"x_max":0,"o":""},"?":{"ha":1154,"x_min":8,"x_max":1147,"o":"m 692 0 l 692 257 l 372 257 l 372 0 l 692 0 m 1118 592 q 1141 670 1135 625 q 1147 781 1147 715 q 1130 915 1147 860 q 1068 1006 1113 969 q 942 1062 1024 1043 q 736 1081 861 1081 q 8 1081 551 1081 l 8 868 q 721 868 697 868 q 801 865 774 868 q 843 852 828 861 q 865 824 858 843 q 871 771 871 806 q 831 688 871 710 q 682 650 790 667 q 635 642 664 647 q 483 605 531 625 q 411 529 435 585 q 399 471 401 506 q 396 374 396 436 l 672 374 q 669 386 669 379 q 694 424 669 406 q 789 446 719 442 l 790 446 q 885 456 842 450 q 979 476 929 461 q 1068 519 1029 490 q 1118 592 1107 549 z "},"A":{"ha":1676,"x_min":24,"x_max":1651,"o":"m 1174 186 l 1274 0 l 1651 0 l 1058 1092 l 622 1092 l 24 0 l 401 0 l 503 186 l 1174 186 m 838 814 l 1049 421 l 626 421 l 838 814 z "},"B":{"ha":1485,"x_min":60,"x_max":1435,"o":"m 60 368 l 60 0 l 1022 0 q 1195 10 1125 0 q 1320 50 1265 19 q 1405 142 1375 81 q 1435 307 1435 204 q 1410 440 1435 389 q 1349 516 1385 492 q 1278 548 1313 540 q 1214 556 1243 556 l 1214 560 q 1257 567 1229 560 q 1317 601 1285 575 q 1372 678 1349 626 q 1396 814 1396 731 q 1362 966 1396 908 q 1274 1051 1328 1024 q 1160 1085 1219 1078 q 1022 1092 1100 1092 l 60 1092 l 60 368 m 390 440 l 1008 440 q 1074 415 1049 440 q 1099 350 1099 390 q 1074 277 1099 300 q 1008 254 1049 254 l 390 254 l 390 440 m 385 847 l 979 847 q 1040 822 1015 847 q 1065 757 1065 796 q 1039 687 1065 713 q 975 661 1013 661 l 385 661 l 385 847 z "},"C":{"ha":1413,"x_min":60,"x_max":1353,"o":"m 60 460 q 60 301 60 307 q 147 76 60 153 q 414 0 233 0 q 1353 0 696 0 l 1353 264 q 451 264 528 264 q 378 282 401 264 q 356 331 356 300 l 351 417 l 351 675 l 356 765 q 379 807 356 790 q 451 824 403 824 q 1353 824 528 824 l 1353 1092 q 414 1092 696 1092 q 147 1015 233 1092 q 60 789 60 939 q 60 632 60 785 l 60 460 z "},"D":{"ha":1538,"x_min":60,"x_max":1478,"o":"m 394 0 l 1122 0 q 1390 76 1303 0 q 1478 297 1478 151 q 1478 456 1478 301 l 1478 638 q 1478 794 1478 790 q 1390 1016 1478 940 q 1122 1092 1303 1092 q 60 1092 840 1092 l 60 0 l 69 0 l 394 0 m 376 258 l 376 829 l 381 829 q 1085 829 1008 829 q 1158 812 1135 829 q 1181 767 1181 794 l 1181 681 l 1181 542 l 1181 413 l 1181 321 q 1158 276 1181 293 q 1085 258 1135 258 l 381 258 l 376 258 z "},"E":{"ha":1317,"x_min":60,"x_max":1257,"o":"m 400 254 l 400 435 l 1204 435 l 1204 656 l 400 656 l 400 839 l 1257 839 l 1257 1092 l 419 1092 l 74 1092 l 60 1092 l 60 0 l 83 0 l 419 0 l 1257 0 l 1257 254 l 400 254 z "},"F":{"ha":1231,"x_min":43,"x_max":1188,"o":"m 383 369 l 1144 369 l 1144 622 l 383 622 l 383 824 l 1188 824 l 1188 1092 l 403 1092 l 67 1092 l 43 1092 l 43 0 l 383 0 l 383 369 z "},"G":{"ha":1503,"x_min":60,"x_max":1443,"o":"m 1439 1092 q 419 1092 697 1092 q 149 1015 238 1092 q 60 790 60 939 q 60 288 60 440 q 75 173 60 218 q 132 92 90 128 q 208 38 167 57 q 315 10 250 19 q 475 -1 381 1 q 750 -4 569 -4 q 1026 -1 931 -4 q 1187 10 1121 1 q 1297 38 1253 19 q 1376 92 1340 57 q 1428 174 1414 129 q 1443 288 1443 219 q 1443 661 1443 440 l 735 661 l 735 456 l 1147 456 l 1147 331 q 1124 285 1147 303 q 1046 268 1100 268 q 457 268 529 268 q 377 280 397 268 q 357 331 357 292 l 357 767 q 381 807 357 790 q 457 824 404 824 q 1439 824 529 824 l 1439 1092 z "},"H":{"ha":1528,"x_min":60,"x_max":1468,"o":"m 1128 407 l 1128 0 l 1468 0 l 1468 1092 l 1128 1092 l 1128 699 l 400 699 l 400 1092 l 60 1092 l 60 0 l 400 0 l 400 407 l 1128 407 z "},"I":{"ha":469,"x_min":64,"x_max":404,"o":"m 64 1092 l 64 0 l 404 0 l 404 1092 l 64 1092 z "},"J":{"ha":803,"x_min":0,"x_max":743,"o":"m 743 1092 l 417 1092 l 417 469 l 413 368 q 374 291 413 318 q 274 264 335 264 l 0 264 l 0 -4 q 308 -1 199 -4 q 486 11 418 1 q 594 40 554 21 q 665 92 635 58 q 726 182 708 133 q 743 297 743 231 l 743 1092 z "},"K":{"ha":1535,"x_min":60,"x_max":1515,"o":"m 60 1092 l 60 0 l 400 0 l 400 1092 l 60 1092 m 400 565 l 1022 0 l 1515 0 l 811 565 l 1435 1092 l 983 1092 l 400 565 z "},"L":{"ha":1153,"x_min":47,"x_max":1125,"o":"m 388 264 l 388 1092 l 47 1092 l 47 0 l 67 0 l 411 0 l 1125 0 l 1125 264 l 388 264 z "},"M":{"ha":1792,"x_min":60,"x_max":1731,"o":"m 1410 794 l 1415 794 l 1415 0 l 1731 0 l 1731 1092 l 1200 1092 l 897 450 l 893 456 l 592 1092 l 60 1092 l 60 0 l 376 0 l 376 794 l 381 794 l 783 0 l 1013 0 l 1410 794 z "},"N":{"ha":1657,"x_min":60,"x_max":1597,"o":"m 381 829 l 385 819 l 1046 4 l 1597 4 l 1597 1092 l 1276 1092 l 1276 268 l 1271 282 l 615 1092 l 60 1092 l 60 4 l 381 4 l 381 829 z "},"O":{"ha":1551,"x_min":60,"x_max":1492,"o":"m 60 282 q 75 169 60 215 q 132 86 90 124 q 213 33 169 51 q 324 5 256 14 q 489 -7 392 -4 q 774 -10 586 -10 q 1060 -7 961 -10 q 1226 5 1158 -4 q 1338 33 1293 14 q 1419 86 1383 51 q 1476 169 1461 124 q 1492 282 1492 215 q 1492 656 1492 440 l 1492 814 q 1476 924 1492 881 q 1419 1006 1461 968 q 1340 1061 1383 1042 q 1230 1089 1296 1081 q 1069 1099 1164 1097 q 778 1101 975 1101 q 486 1099 581 1101 q 324 1089 392 1097 q 213 1061 257 1081 q 132 1006 168 1042 q 75 924 90 968 q 60 814 60 881 l 60 282 m 367 767 q 390 815 367 797 q 467 833 413 833 q 1089 833 1013 833 q 1169 819 1147 833 q 1190 767 1190 806 l 1190 450 l 1190 325 q 1165 281 1190 299 q 1085 264 1139 264 q 467 264 543 264 q 388 277 408 264 q 367 325 367 290 l 367 767 z "},"P":{"ha":1365,"x_min":38,"x_max":1326,"o":"m 981 349 q 1248 447 1169 349 q 1326 751 1326 544 q 1303 917 1326 851 q 1230 1020 1279 982 q 1104 1075 1181 1058 q 914 1092 1028 1092 l 38 1092 l 38 0 l 378 0 l 378 818 l 885 818 q 972 786 933 818 q 1014 708 1011 754 q 974 620 1014 651 q 881 589 933 589 l 425 589 l 693 349 l 981 349 z "},"Q":{"ha":1643,"x_min":39,"x_max":1604,"o":"m 1432 139 l 1604 -14 l 1604 301 l 1461 431 q 1461 651 1461 551 l 1461 804 q 1446 917 1461 871 q 1389 1001 1431 964 q 1309 1055 1351 1036 q 1200 1083 1267 1074 q 1037 1094 1133 1092 q 753 1097 940 1097 q 467 1094 565 1097 q 303 1083 369 1092 q 192 1055 236 1074 q 111 1001 149 1036 q 54 917 69 964 q 39 804 39 871 l 39 278 q 54 167 39 213 q 111 82 69 122 q 190 28 147 47 q 299 1 233 10 q 458 -8 365 -7 q 747 -10 550 -10 q 1038 -8 944 -10 q 1198 1 1131 -7 q 1309 28 1265 10 q 1389 82 1353 47 q 1432 139 1417 107 m 340 761 q 364 806 340 789 q 442 824 388 824 q 1058 824 982 824 q 1139 812 1118 824 q 1160 761 1160 800 l 1160 446 l 1160 321 q 1136 276 1160 293 q 1058 258 1113 258 q 442 258 518 258 q 362 272 383 258 q 340 321 340 285 l 340 761 z "},"R":{"ha":1500,"x_min":60,"x_max":1482,"o":"m 936 594 l 447 594 l 1104 0 l 1482 0 l 1036 388 l 1036 393 q 1198 413 1133 393 q 1301 474 1263 432 q 1358 583 1340 515 q 1376 751 1376 651 q 1353 917 1376 851 q 1282 1020 1331 982 q 1157 1075 1233 1058 q 965 1092 1081 1092 l 60 1092 l 60 0 l 400 0 l 400 819 l 940 819 q 1028 788 990 819 q 1065 708 1065 757 q 1026 624 1065 653 q 936 594 988 594 z "},"S":{"ha":1451,"x_min":60,"x_max":1406,"o":"m 1361 546 q 1147 657 1300 649 q 1074 662 1118 660 q 965 667 1029 664 q 733 675 900 669 q 588 681 613 679 q 560 681 579 681 q 531 681 531 681 q 426 697 464 681 q 389 767 389 714 q 401 814 389 796 q 432 841 413 832 q 474 853 451 850 q 524 856 496 856 q 1365 856 553 856 l 1365 1092 q 342 1092 543 1092 q 125 1007 190 1092 q 60 753 60 922 q 107 546 60 615 q 328 444 174 453 q 401 440 358 442 q 493 435 444 438 q 733 426 542 433 q 882 421 856 422 q 955 419 925 421 q 1013 408 985 417 q 1058 378 1040 399 q 1075 325 1075 358 q 1063 278 1075 296 q 1029 251 1050 260 q 984 239 1008 242 q 931 236 960 236 q 89 236 901 236 l 89 0 q 1075 0 872 0 q 1327 79 1249 0 q 1406 335 1406 158 q 1361 546 1406 461 z "},"T":{"ha":1379,"x_min":49,"x_max":1332,"o":"m 868 839 l 1332 839 l 1332 1092 l 49 1092 l 49 839 l 528 839 l 528 0 l 868 0 l 868 839 z "},"U":{"ha":1499,"x_min":60,"x_max":1439,"o":"m 60 1092 l 60 317 q 76 192 60 243 q 136 96 92 140 q 215 35 182 54 q 302 6 247 15 q 454 -7 357 -4 q 750 -10 551 -10 q 1047 -7 950 -10 q 1198 6 1143 -4 q 1284 34 1253 15 q 1363 96 1315 53 q 1423 192 1407 140 q 1439 317 1439 243 l 1439 1092 l 1104 1092 l 1104 364 q 1077 312 1104 332 q 989 292 1050 292 l 506 292 q 422 312 449 292 q 394 364 394 332 l 394 1092 l 60 1092 z "},"V":{"ha":1710,"x_min":42,"x_max":1669,"o":"m 856 274 l 419 1092 l 42 1092 l 636 4 l 1071 4 l 1669 1092 l 1292 1092 l 856 274 z "},"W":{"ha":2169,"x_min":31,"x_max":2156,"o":"m 1094 764 l 1331 0 l 1701 0 l 2156 1092 l 1808 1092 l 1522 367 l 1278 1092 l 911 1092 l 664 367 l 658 367 l 378 1092 l 31 1092 l 485 0 l 857 0 l 1094 764 z "},"X":{"ha":1571,"x_min":24,"x_max":1558,"o":"m 792 328 l 1101 0 l 1558 0 l 1019 539 l 1535 1092 l 1088 1092 l 788 754 l 486 1092 l 43 1092 l 553 539 l 24 0 l 482 0 l 792 328 z "},"Y":{"ha":1600,"x_min":39,"x_max":1567,"o":"m 1567 1092 l 1158 1092 l 803 649 l 447 1092 l 39 1092 l 631 379 l 631 0 l 972 0 l 972 379 l 1567 1092 z "},"Z":{"ha":1389,"x_min":50,"x_max":1343,"o":"m 544 258 l 554 258 l 1343 832 l 1343 1092 l 50 1092 l 50 832 l 849 832 l 833 832 l 50 258 l 50 0 l 1343 0 l 1343 258 l 544 258 z "},"‘":{"ha":1150,"x_min":14,"x_max":1133,"o":"m 14 881 l 32 881 l 147 997 q 172 997 161 997 l 289 1114 l 314 1114 l 546 1346 l 481 1346 l 14 881 m 93 881 l 111 881 l 226 997 q 251 997 240 997 l 369 1114 l 393 1114 l 625 1346 l 558 1346 l 93 881 m 174 881 l 192 881 l 306 997 q 331 997 319 997 l 447 1114 l 472 1114 l 704 1346 l 639 1346 l 174 881 m 247 875 l 247 857 l 363 974 l 363 949 l 479 1065 l 479 1042 l 711 1274 l 711 1340 l 247 875 m 247 796 l 247 778 l 363 893 l 363 869 l 479 986 q 479 961 479 985 l 711 1193 l 711 1260 l 247 796 m 711 1135 l 711 1181 l 247 715 l 247 699 l 363 814 l 363 790 l 479 906 l 479 882 l 571 974 q 596 974 588 974 l 714 1092 l 735 1092 l 967 1324 l 900 1325 l 713 1135 l 711 1135 m 515 860 l 532 858 l 649 974 l 672 974 l 790 1092 l 814 1092 l 1047 1324 l 981 1325 l 515 860 m 594 860 l 613 858 l 726 974 l 751 974 l 869 1092 l 893 1092 l 1125 1324 l 1060 1325 l 594 860 m 667 853 l 668 835 l 783 951 q 783 926 783 928 q 828 970 785 926 q 882 1025 871 1014 q 900 1043 893 1036 l 900 1019 l 1133 1251 l 1133 1317 l 667 853 m 346 451 l 364 451 l 481 567 l 504 567 l 619 682 l 644 682 l 878 917 l 853 917 l 900 964 l 900 939 l 1133 1171 l 1133 1239 l 346 451 m 425 451 l 443 451 l 560 567 l 583 567 l 700 682 l 722 682 l 1133 1093 l 1133 1158 l 425 451 m 504 451 l 522 451 l 639 567 l 663 567 l 779 682 l 803 682 l 1036 917 l 969 917 l 504 451 m 578 444 l 578 426 l 694 543 l 694 519 l 810 636 l 810 611 l 1042 843 l 1042 910 l 578 444 m 578 365 l 578 347 l 694 464 q 694 439 694 463 l 810 556 l 810 531 l 1042 764 l 1042 831 l 578 365 m 578 286 l 578 268 l 694 385 l 694 360 l 810 475 l 810 453 l 1042 685 l 1042 750 l 578 286 z "},"–":{"ha":851,"x_min":60,"x_max":792,"o":"m 792 238 l 792 524 l 60 524 l 60 238 l 792 238 z "}," ":{"ha":694,"x_min":0,"x_max":0,"o":""},"©":{"ha":507,"x_min":24,"x_max":483,"o":"m 254 1088 q 166 1069 208 1088 q 92 1019 124 1051 q 42 945 60 988 q 24 857 24 903 q 42 771 24 813 q 92 698 60 729 q 166 649 124 667 q 254 632 208 632 q 342 649 300 632 q 415 698 383 667 q 465 771 447 729 q 483 857 483 813 q 465 945 483 903 q 415 1019 447 988 q 342 1069 383 1051 q 254 1088 300 1088 m 254 1054 q 392 997 333 1054 q 450 857 450 939 q 435 783 450 818 q 392 719 419 747 q 328 676 364 692 q 254 661 293 661 q 179 676 215 661 q 116 719 143 692 q 73 783 89 747 q 57 857 57 818 q 73 933 57 897 q 117 997 89 969 q 180 1039 144 1024 q 254 1054 215 1054 m 115 843 q 115 810 115 810 q 186 751 115 751 q 374 751 244 751 l 374 804 q 196 804 206 804 q 181 808 183 804 q 178 819 178 811 l 178 838 l 178 886 l 178 906 q 180 914 178 913 q 196 915 182 915 q 374 915 206 915 l 374 972 q 186 972 244 972 q 115 910 115 972 q 115 876 115 910 l 115 843 z "},"®":{"ha":503,"x_min":24,"x_max":479,"o":"m 249 1082 q 163 1064 204 1082 q 90 1014 121 1046 q 41 940 58 982 q 24 853 24 899 q 41 765 24 807 q 90 690 58 722 q 163 640 121 658 q 249 622 204 622 q 337 640 294 622 q 411 690 379 658 q 461 765 443 722 q 479 853 479 807 q 461 940 479 899 q 411 1014 443 982 q 337 1064 379 1046 q 249 1082 294 1082 m 249 1049 q 389 991 332 1049 q 446 853 446 933 q 388 714 446 772 q 249 656 331 656 q 174 672 210 656 q 111 715 139 688 q 68 778 83 742 q 53 853 53 814 q 68 927 53 892 q 111 990 83 963 q 174 1033 139 1018 q 249 1049 210 1049 m 297 872 l 196 872 l 325 757 l 403 757 l 317 833 q 383 900 383 833 q 365 954 383 942 q 297 967 347 967 l 119 967 l 119 757 l 186 757 l 186 919 l 297 919 q 313 912 306 919 q 321 890 321 904 q 313 878 321 883 q 297 872 306 872 z "},"Ä":{"ha":1676,"x_min":43,"x_max":1688,"o":"m 1206 188 l 1306 0 l 1688 0 l 1088 1092 l 649 1092 l 43 0 l 425 0 l 526 188 l 1206 188 m 789 1146 l 789 1339 l 503 1339 l 503 1146 l 789 1146 m 1224 1146 l 1224 1339 l 933 1339 l 933 1146 l 1224 1146 m 865 822 l 1078 425 l 653 425 l 865 822 z "},"Å":{"ha":1714,"x_min":43,"x_max":1676,"o":"m 1192 192 l 1197 192 l 1297 0 l 1676 0 l 1076 1092 l 640 1092 l 43 0 l 422 0 l 524 192 l 1192 192 m 860 1403 q 774 1391 815 1403 q 701 1359 733 1379 q 652 1314 669 1339 q 635 1264 635 1289 q 652 1214 635 1239 q 701 1169 669 1189 q 774 1137 733 1149 q 860 1125 815 1125 q 946 1137 904 1125 q 1019 1169 988 1149 q 1069 1215 1051 1190 q 1086 1264 1086 1239 q 1069 1314 1086 1289 q 1019 1359 1051 1339 q 946 1391 988 1379 q 860 1403 904 1403 m 860 1201 q 779 1217 808 1201 q 750 1264 750 1233 q 779 1311 750 1296 q 860 1326 808 1326 q 940 1310 910 1326 q 969 1264 969 1294 q 940 1217 969 1233 q 860 1201 910 1201 m 860 822 l 1067 428 l 649 428 l 860 822 z "},"Ö":{"ha":1551,"x_min":60,"x_max":1492,"o":"m 60 450 l 60 282 q 75 168 60 213 q 132 86 90 124 q 213 33 169 51 q 323 5 256 14 q 488 -7 390 -4 q 774 -10 585 -10 q 1059 -7 961 -10 q 1224 5 1157 -4 q 1335 33 1290 14 q 1415 86 1379 51 q 1472 169 1457 124 q 1488 282 1488 214 l 1488 546 q 1488 656 1488 608 l 1492 810 q 1475 919 1492 872 q 1419 1006 1458 967 q 1337 1060 1381 1040 q 1226 1088 1293 1079 q 1062 1099 1160 1097 q 778 1101 964 1101 q 493 1099 592 1101 q 326 1088 394 1097 q 213 1060 257 1079 q 132 1006 168 1040 q 75 922 90 968 q 60 810 60 876 l 60 546 q 60 450 60 489 m 706 1158 l 706 1350 l 419 1350 l 419 1158 l 706 1158 m 1138 1154 l 1138 1350 l 850 1350 l 850 1154 l 1138 1154 m 367 546 l 367 767 q 390 812 367 794 q 467 829 414 829 q 1085 829 1008 829 q 1165 817 1144 829 q 1185 767 1185 806 l 1185 546 l 1185 450 l 1185 325 q 1162 281 1185 297 q 1085 264 1139 264 q 467 264 543 264 q 387 276 407 264 q 367 325 367 288 l 367 546 z "}}}
